<?xml version="1.0" encoding="UTF-8"?>
<svg width="120px" height="120px" viewBox="0 0 120 120" version="1.1" xmlns="http://www.w3.org/2000/svg" xmlns:xlink="http://www.w3.org/1999/xlink">
    <!-- Generator: Sketch 55.2 (78181) - https://sketchapp.com -->
    <title>Code-Editor</title>
    <desc>Created with Sketch.</desc>
    <defs>
        <linearGradient x1="21.547135%" y1="-16.1960477%" x2="74.6243788%" y2="113.322799%" id="linearGradient-1">
            <stop stop-color="#FF9F9F" offset="0%"></stop>
            <stop stop-color="#FF6666" offset="100%"></stop>
        </linearGradient>
    </defs>
    <g id="Code-Editor" stroke="none" stroke-width="1" fill="none" fill-rule="evenodd">
        <rect id="Rectangle" stroke="#B00000" stroke-width="2" fill="url(#linearGradient-1)" x="1" y="1" width="118" height="118"></rect>
        <path d="M24,64.0039062 L24,55.5664062 C25.7109461,55.4726558 27,55.2148459 27.8671875,54.7929688 C28.7343793,54.3710916 29.4843718,53.6621144 30.1171875,52.6660156 C30.7500032,51.6699169 31.1835926,50.4218825 31.4179688,48.921875 C31.6054697,47.7968694 31.6992188,45.8398577 31.6992188,43.0507812 C31.6992188,38.5038835 31.9101541,35.3339933 32.3320312,33.5410156 C32.7539084,31.7480379 33.5156195,30.3066461 34.6171875,29.2167969 C35.7187555,28.1269477 37.3242082,27.2656282 39.4335938,26.6328125 C40.8632884,26.2109354 43.1132659,26 46.1835938,26 L48.046875,26 L48.046875,34.4023438 C45.4452995,34.4023438 43.7753943,34.5488267 43.0371094,34.8417969 C42.2988244,35.1347671 41.753908,35.5800751 41.4023438,36.1777344 C41.0507795,36.7753936 40.875,37.800774 40.875,39.2539062 C40.875,40.7304761 40.7695323,43.5312294 40.5585938,47.65625 C40.4414057,49.9765741 40.1367212,51.8574147 39.6445312,53.2988281 C39.1523413,54.7402416 38.5253944,55.9296828 37.7636719,56.8671875 C37.0019493,57.8046922 35.8359454,58.7773387 34.265625,59.7851562 C35.6484444,60.5820352 36.7792925,61.5136665 37.6582031,62.5800781 C38.5371138,63.6464897 39.2109352,64.9413986 39.6796875,66.4648438 C40.1484398,67.9882889 40.4531243,70.027331 40.59375,72.5820312 C40.7578133,76.4726757 40.8398438,78.9570259 40.8398438,80.0351562 C40.8398438,81.582039 41.0273419,82.6601532 41.4023438,83.2695312 C41.7773456,83.8789093 42.3456993,84.3417953 43.1074219,84.6582031 C43.8691444,84.974611 45.5156123,85.1328125 48.046875,85.1328125 L48.046875,93.5703125 L46.1835938,93.5703125 C43.0195154,93.5703125 40.5937584,93.3183619 38.90625,92.8144531 C37.2187416,92.3105444 35.7949277,91.4726621 34.6347656,90.3007812 C33.4746036,89.1289004 32.6953145,87.6816492 32.296875,85.9589844 C31.8984355,84.2363195 31.6992188,81.523456 31.6992188,77.8203125 C31.6992188,73.5077909 31.5117206,70.7070377 31.1367188,69.4179688 C30.6210912,67.5429594 29.8418021,66.2011759 28.7988281,65.3925781 C27.7558542,64.5839803 26.1562608,64.1210943 24,64.0039062 Z M95.5429688,64.0039062 C93.8320227,64.0976567 92.5429731,64.3554666 91.6757812,64.7773438 C90.8085894,65.1992209 90.0644562,65.9081981 89.4433594,66.9042969 C88.8222625,67.9003956 88.3828138,69.14843 88.125,70.6484375 C87.9374991,71.7734431 87.84375,73.7187362 87.84375,76.484375 C87.84375,81.0312727 87.6386739,84.2070222 87.2285156,86.0117188 C86.8183573,87.8164153 86.0625055,89.2636664 84.9609375,90.3535156 C83.8593695,91.4433648 82.2421982,92.3046843 80.109375,92.9375 C78.6796804,93.3593771 76.4297029,93.5703125 73.359375,93.5703125 L71.4960938,93.5703125 L71.4960938,85.1328125 C74.0039188,85.1328125 75.6445274,84.974611 76.4179688,84.6582031 C77.1914101,84.3417953 77.7597638,83.8847686 78.1230469,83.2871094 C78.4863299,82.6894501 78.6738281,81.6757884 78.6855469,80.2460938 C78.6972657,78.8163991 78.7968741,76.0859577 78.984375,72.0546875 C79.1015631,69.6171753 79.4179662,67.6660229 79.9335938,66.2011719 C80.4492213,64.7363208 81.1347613,63.4941457 81.9902344,62.4746094 C82.8457074,61.455073 83.9413996,60.5585976 85.2773438,59.7851562 C83.5429601,58.6601506 82.2773477,57.5585991 81.4804688,56.4804688 C80.3789007,54.933586 79.6289082,52.9648557 79.2304688,50.5742188 C78.972655,48.9335855 78.7851568,45.3242466 78.6679688,39.7460938 C78.6445311,37.9882725 78.4863296,36.8164092 78.1933594,36.2304688 C77.9003892,35.6445283 77.3730507,35.193361 76.6113281,34.8769531 C75.8496056,34.5605453 74.1445445,34.4023438 71.4960938,34.4023438 L71.4960938,26 L73.359375,26 C76.5234533,26 78.9492103,26.2460913 80.6367188,26.7382812 C82.3242272,27.2304712 83.7421818,28.0683535 84.890625,29.2519531 C86.0390682,30.4355528 86.8183573,31.8886633 87.2285156,33.6113281 C87.6386739,35.333993 87.84375,38.0468565 87.84375,41.75 C87.84375,46.0390839 88.0195295,48.8398372 88.3710938,50.1523438 C88.8867213,52.0273531 89.6718697,53.3691366 90.7265625,54.1777344 C91.7812553,54.9863322 93.386708,55.4492182 95.5429688,55.5664062 L95.5429688,64.0039062 Z" id="{}" fill="#FFFFFF" fill-rule="nonzero"></path>
    </g>
</svg>