<?xml version="1.0" encoding="UTF-8"?>
<svg width="461px" height="541px" viewBox="0 0 461 541" version="1.1" xmlns="http://www.w3.org/2000/svg" xmlns:xlink="http://www.w3.org/1999/xlink">
    <!-- Generator: Sketch 62 (91390) - https://sketch.com -->
    <title>FastSitePHP</title>
    <style>
        /**** Site Title Layout and CSS Animation ****/
        #text-12 { animation: title-text 10s ease infinite; transform-origin: 100px 20px; }
        @keyframes title-text {
            0%, 60%, 100% { transform: scale3d(0.8, 0.8, 0.8); }
            80%, 90% { transform: scale3d(1, 1, 1); }
        }

        /*
        transform-origin:100px 200px;
        transform-origin:100px;
        transform-origin: center;
        */

        /* Rocketship Layout and CSS Animation */
        #Rocketship { animation: rocket 10s ease infinite; width:400px; height:400px; transform-origin:100px; }
        @keyframes rocket {
            0%, 25%, 30%, 55%, 60%, 100% { transform: scale3d(0.67, 0.67, 0.67) rotate(45deg) translate3d(0, 0, 0); }
            15%, 45% { transform: scale3d(0.67, 0.67, 0.67) rotate(45deg) translate3d(0, -100px, 0); }
            80%, 90% { transform: scale3d(1, 1, 1) rotate(0deg) translate3d(10px, 10px, 0); }
        }

        #Rocketship #Fire { animation: fire 10s ease infinite; }
        @keyframes fire {
            0%, 25%, 30%, 55%, 60%, 100% { opacity: 0; }
            1%, 15%, 31%, 45%, 61%, 80%, 90% { opacity: 1; }
        }
    </style>
    <defs>
        <filter x="-6.0%" y="-5.4%" width="112.0%" height="110.9%" filterUnits="objectBoundingBox" id="filter-1">
            <feOffset dx="0" dy="0" in="SourceAlpha" result="shadowOffsetOuter1"></feOffset>
            <feGaussianBlur stdDeviation="5" in="shadowOffsetOuter1" result="shadowBlurOuter1"></feGaussianBlur>
            <feColorMatrix values="0 0 0 0 0   0 0 0 0 0   0 0 0 0 0  0 0 0 0.5 0" type="matrix" in="shadowBlurOuter1" result="shadowMatrixOuter1"></feColorMatrix>
            <feMerge>
                <feMergeNode in="shadowMatrixOuter1"></feMergeNode>
                <feMergeNode in="SourceGraphic"></feMergeNode>
            </feMerge>
        </filter>
        <linearGradient x1="50%" y1="0%" x2="50%" y2="100%" id="linearGradient-2">
            <stop stop-color="#D1CB23" offset="0%"></stop>
            <stop stop-color="#F8E71C" offset="100%"></stop>
        </linearGradient>
        <radialGradient cx="74.6337891%" cy="84.893549%" fx="74.6337891%" fy="84.893549%" r="105.365349%" gradientTransform="translate(0.746338,0.848935),scale(0.708333,1.000000),rotate(-180.000000),translate(-0.746338,-0.848935)" id="radialGradient-3">
            <stop stop-color="#BDC4E1" offset="0%"></stop>
            <stop stop-color="#8892BF" offset="100%"></stop>
        </radialGradient>
        <radialGradient cx="50%" cy="122.352431%" fx="50%" fy="122.352431%" r="137.35119%" gradientTransform="translate(0.500000,1.223524),scale(0.745934,1.000000),rotate(-90.000000),translate(-0.500000,-1.223524)" id="radialGradient-4">
            <stop stop-color="#FF003C" offset="0%"></stop>
            <stop stop-color="#BC051B" offset="100%"></stop>
        </radialGradient>
        <linearGradient x1="50%" y1="0%" x2="50%" y2="121.08028%" id="linearGradient-5">
            <stop stop-color="#EEEEEE" offset="0%"></stop>
            <stop stop-color="#888888" offset="100%"></stop>
        </linearGradient>
        <radialGradient cx="50%" cy="86.3463407%" fx="50%" fy="86.3463407%" r="219.569669%" gradientTransform="translate(0.500000,0.863463),scale(1.000000,0.324675),rotate(-122.013156),translate(-0.500000,-0.863463)" id="radialGradient-6">
            <stop stop-color="#BBBED0" offset="0%"></stop>
            <stop stop-color="#FFFFFF" offset="100%"></stop>
        </radialGradient>
        <radialGradient cx="19.9456788%" cy="-57.8596444%" fx="19.9456788%" fy="-57.8596444%" r="249.769639%" gradientTransform="translate(0.199457,-0.578596),scale(0.453730,1.000000),rotate(45.057671),translate(-0.199457,0.578596)" id="radialGradient-7">
            <stop stop-color="#8794C5" offset="0%"></stop>
            <stop stop-color="#4F5B93" offset="100%"></stop>
        </radialGradient>
        <radialGradient cx="50%" cy="122.352431%" fx="50%" fy="122.352431%" r="159.007974%" gradientTransform="translate(0.500000,1.223524),scale(1.000000,0.863801),rotate(-90.000000),translate(-0.500000,-1.223524)" id="radialGradient-8">
            <stop stop-color="#FF003C" offset="0%"></stop>
            <stop stop-color="#BC051B" offset="100%"></stop>
        </radialGradient>
        <linearGradient x1="48.6823242%" y1="0%" x2="51.3176758%" y2="100%" id="linearGradient-9">
            <stop stop-color="#8794C5" stop-opacity="0.2" offset="0%"></stop>
            <stop stop-color="#4F5B93" stop-opacity="0.2" offset="100%"></stop>
        </linearGradient>
        <filter x="-18.2%" y="-10.1%" width="136.4%" height="120.3%" filterUnits="objectBoundingBox" id="filter-10">
            <feOffset dx="0" dy="0" in="SourceAlpha" result="shadowOffsetOuter1"></feOffset>
            <feGaussianBlur stdDeviation="2" in="shadowOffsetOuter1" result="shadowBlurOuter1"></feGaussianBlur>
            <feColorMatrix values="0 0 0 0 0   0 0 0 0 0   0 0 0 0 0  0 0 0 0.5 0" type="matrix" in="shadowBlurOuter1" result="shadowMatrixOuter1"></feColorMatrix>
            <feMerge>
                <feMergeNode in="shadowMatrixOuter1"></feMergeNode>
                <feMergeNode in="SourceGraphic"></feMergeNode>
            </feMerge>
        </filter>
        <linearGradient x1="50%" y1="0%" x2="50%" y2="100%" id="linearGradient-11">
            <stop stop-color="#4F5B93" stop-opacity="0.8" offset="0%"></stop>
            <stop stop-color="#4F5B93" offset="100%"></stop>
        </linearGradient>
        <text id="text-12" font-family="Corbel" font-size="84" font-weight="normal">
            <tspan x="13" y="87">FastSitePHP</tspan>
        </text>
        <filter x="-0.7%" y="-1.9%" width="101.8%" height="107.8%" filterUnits="objectBoundingBox" id="filter-13">
            <feOffset dx="1" dy="2" in="SourceAlpha" result="shadowOffsetOuter1"></feOffset>
            <feGaussianBlur stdDeviation="1" in="shadowOffsetOuter1" result="shadowBlurOuter1"></feGaussianBlur>
            <feColorMatrix values="0 0 0 0 0.88627451   0 0 0 0 0.894117647   0 0 0 0 0.937254902  0 0 0 1 0" type="matrix" in="shadowBlurOuter1"></feColorMatrix>
        </filter>
    </defs>
    <g id="FastSitePHP" stroke="none" stroke-width="1" fill="none" fill-rule="evenodd">
        <g id="Rocketship" filter="url(#filter-1)" transform="translate(39.000000, 131.000000)">
            <g id="Fire" transform="translate(131.000000, 294.000000)" stroke="#F5A623">
                <path d="M61.0525589,22.4410162 L50.5813826,5.64101615 L17.8996703,5.64101615 L17.8996703,22.4410162 C17.8996703,22.4410162 12.5224784,40.0410162 28.8633364,52.0410162 C45.2041944,64.0410162 32.7789322,85.6410162 32.7789322,85.6410162 C59.2189914,85.6410162 61.0525589,22.4410162 61.0525589,22.4410162 Z" id="Flame-Left" stroke-width="1.6" fill="url(#linearGradient-2)" transform="translate(39.052559, 45.641016) rotate(-330.000000) translate(-39.052559, -45.641016) "></path>
                <path d="M105.052559,22.4410162 L94.5813826,5.64101615 L61.8996703,5.64101615 L61.8996703,22.4410162 C61.8996703,22.4410162 56.5224784,40.0410162 72.8633364,52.0410162 C89.2041944,64.0410162 76.7789322,85.6410162 76.7789322,85.6410162 C103.218991,85.6410162 105.052559,22.4410162 105.052559,22.4410162 Z" id="Flame-Right" stroke-width="2" fill="url(#linearGradient-2)" transform="translate(83.052559, 45.641016) scale(-1, 1) rotate(-330.000000) translate(-83.052559, -45.641016) "></path>
                <path d="M69.3202879,84.2398106 C79.0189701,86.5487216 85.9629055,89.8927409 85.9998534,69.9032975 C86.0467128,44.5516063 74.8538971,24 61,24 C47.1461029,24 35.9532872,44.5516063 36.0001466,69.9032975 C36.047006,95.2549886 47.2064088,83.0755481 61,83.0755481 C63.9175432,83.0755481 66.7180137,83.620436 69.3202879,84.2398106 Z" id="Flame-Center-2" stroke-width="2" fill="#F8E71C"></path>
                <path d="M82,25.8 L71.5288237,9 L38.8471114,9 L38.8471114,25.8 C38.8471114,25.8 33.4699196,43.4 49.8107775,55.4 C66.1516355,67.4 53.7263733,89 53.7263733,89 C80.1664325,89 82,25.8 82,25.8 Z" id="Flame-Center-1" stroke-width="2" fill="url(#linearGradient-2)"></path>
            </g>
            <g id="Wing-Left" transform="translate(0.000000, 149.000000)" stroke="#4F5B93" stroke-width="2">
                <path d="M-5.68434189e-14,0 L192,124.865497 C192,124.865497 88.6825271,136 37.6,136 C24.6825271,136 -5.68434189e-14,124.865497 -5.68434189e-14,124.865497 L-5.68434189e-14,0 Z" id="Wing-Left-Bg" fill="url(#radialGradient-3)" transform="translate(96.000000, 68.000000) scale(-1, 1) translate(-96.000000, -68.000000) "></path>
                <path d="M60,85.8450292 L-5.68434189e-14,124.865497 C-5.68434189e-14,124.865497 26.8812938,127.762489 60,130.601077 L60,85.8450292 L60,85.8450292 Z" id="Wing-Left-Tip" fill="url(#radialGradient-4)"></path>
            </g>
            <g id="Wing-Right" transform="translate(192.000000, 149.000000)" stroke="#4F5B93" stroke-width="2">
                <path d="M0,0 L192,124.865497 C192,124.865497 88.6825271,136 37.6,136 C24.6825271,136 0,124.865497 0,124.865497 L0,0 Z" id="Wing-Right-Bg" fill="url(#radialGradient-3)"></path>
                <path d="M132,85.8450292 L192,124.865497 C192,124.865497 165.118706,127.762489 132,130.601077 L132,85.8450292 L132,85.8450292 Z" id="Wing-Right-Tip" fill="url(#radialGradient-4)"></path>
            </g>
            <g id="Body" transform="translate(142.000000, 0.000000)">
                <polygon id="Engine-Nozzle" stroke="#4F5B93" stroke-width="2" fill="url(#linearGradient-5)" points="90 322 10 322 21.8624686 276 78.1375314 276"></polygon>
                <path d="M50,298.673529 C77.6142375,298.673529 100,342.011184 100,241.846678 C100,141.682171 64.2857143,-7.20857018e-15 50,-7.58796861e-17 C35.7142857,1.10784342e-14 0,141.682171 0,241.846678 C0,342.011184 22.3857625,298.673529 50,298.673529 Z" id="Frame" stroke="#4F5B93" stroke-width="2" fill="url(#radialGradient-6)"></path>
                <path d="M99.5889378,263 C96.4286782,335.431258 75.4316587,298.673529 50,298.673529 C24.5683413,298.673529 3.57132178,335.431258 0.411062248,263 L99.5889378,263 L99.5889378,263 Z" id="Bottom" stroke="#4F5B93" stroke-width="2" fill="url(#radialGradient-7)"></path>
                <path d="M72.8907171,53 C64.2590789,21.2016298 55.5262303,-2.75918234e-15 50,0 C44.4737697,4.31489153e-15 35.7409211,21.2016298 27.1092829,53 L72.8907171,53 L72.8907171,53 Z" id="Tip" stroke="#4F5B93" stroke-width="2" fill="url(#radialGradient-8)"></path>
                <path d="M50,0 C64.2857143,-7.1326905e-15 100,141.682171 100,241.846678 C100,342.011184 77.6142375,298.673529 50,298.673529 L50,4.29472718e-15 L50,0 Z" id="Shadow" fill="url(#linearGradient-9)"></path>
            </g>
            <g id="PHP-Label" filter="url(#filter-10)" transform="translate(170.000000, 144.000000)">
                <rect id="PHP-Rect" stroke="#4F5B93" stroke-width="2" fill="#FFFFFF" x="1" y="1" width="42" height="77"></rect>
                <text id="PHP" transform="translate(22.000000, 39.000000) rotate(-90.000000) translate(-22.000000, -39.000000) " font-family="Arial-BoldMT, Arial" font-size="28.8" font-weight="bold" fill="#4F5B93">
                    <tspan x="-8" y="49">PHP</tspan>
                </text>
            </g>
        </g>
        <g>
            <use fill="#4F5B93" fill-opacity="1" filter="url(#filter-13)" xlink:href="#text-12"></use>
            <use fill="url(#linearGradient-11)" fill-rule="evenodd" xlink:href="#text-12"></use>
            <use fill="#4F5B93" fill-opacity="1" xlink:href="#text-12"></use>
        </g>
    </g>
</svg>